Renner-800-Heavy.ufo
<glyph name="three" format="1">
  <advance width="643"/>
  <unicode hex="0033"/>
  <outline>
    <contour>
      <point x="282" y="336" type="curve"/>
      <point x="282" y="420" type="line"/>
      <point x="356" y="420"/>
      <point x="407" y="458"/>
      <point x="407" y="504" type="curve" smooth="yes"/>
      <point x="407" y="538"/>
      <point x="384" y="562"/>
      <point x="336" y="562" type="curve" smooth="yes"/>
      <point x="288" y="562"/>
      <point x="252" y="530"/>
      <point x="252" y="486" type="curve"/>
      <point x="74" y="486" type="line"/>
      <point x="74" y="615"/>
      <point x="176" y="714"/>
      <point x="336" y="714" type="curve" smooth="yes"/>
      <point x="505" y="714"/>
      <point x="599" y="629"/>
      <point x="599" y="518" type="curve" smooth="yes"/>
      <point x="599" y="390"/>
      <point x="458" y="336"/>
    </contour>
    <contour>
      <point x="328" y="-18" type="curve" smooth="yes"/>
      <point x="148" y="-18"/>
      <point x="44" y="105"/>
      <point x="44" y="234" type="curve"/>
      <point x="236" y="234" type="line"/>
      <point x="236" y="164"/>
      <point x="284" y="135"/>
      <point x="336" y="135" type="curve" smooth="yes"/>
      <point x="388" y="135"/>
      <point x="427" y="156"/>
      <point x="427" y="212" type="curve" smooth="yes"/>
      <point x="427" y="262"/>
      <point x="388" y="300"/>
      <point x="282" y="300" type="curve"/>
      <point x="282" y="396" type="line"/>
      <point x="482" y="396"/>
      <point x="619" y="337"/>
      <point x="619" y="194" type="curve" smooth="yes"/>
      <point x="619" y="71"/>
      <point x="514" y="-18"/>
    </contour>
  </outline>
</glyph>
<glyph name="four" format="1">
  <advance width="733"/>
  <unicode hex="0034"/>
  <outline>
    <contour>
      <point x="12" y="120" type="line"/>
      <point x="171" y="256" type="line"/>
      <point x="482" y="256" type="line" smooth="yes"/>
      <point x="500" y="284" type="line" smooth="yes"/>
      <point x="687" y="284" type="line"/>
      <point x="687" y="120" type="line"/>
    </contour>
    <contour>
      <point x="208" y="184" type="line"/>
      <point x="12" y="120" type="line"/>
      <point x="424" y="700" type="line"/>
      <point x="577" y="700" type="line"/>
      <point x="577" y="0" type="line"/>
      <point x="374" y="0" type="line"/>
      <point x="374" y="156" type="line" smooth="yes"/>
      <point x="398" y="167" type="line" smooth="yes"/>
      <point x="398" y="438" type="line"/>
    </contour>
  </outline>
</glyph>
<glyph name="J" format="1">
  <advance width="357"/>
  <unicode hex="004A"/>
  <outline>
    <contour>
      <point x="-74" y="-48" type="line"/>
      <point x="-52" y="-64"/>
      <point x="-20" y="-80"/>
      <point x="8" y="-80" type="curve" smooth="yes"/>
      <point x="38" y="-80"/>
      <point x="72" y="-60"/>
      <point x="72" y="-2" type="curve" smooth="yes"/>
      <point x="72" y="700" type="line"/>
      <point x="286" y="700" type="line"/>
      <point x="286" y="-52" type="line" smooth="yes"/>
      <point x="286" y="-194"/>
      <point x="166" y="-244"/>
      <point x="32" y="-244" type="curve" smooth="yes"/>
      <point x="-54" y="-244"/>
      <point x="-132" y="-214"/>
      <point x="-180" y="-186" type="curve"/>
    </contour>
  </outline>
</glyph>
<glyph name="K" format="1">
  <advance width="740"/>
  <unicode hex="004B"/>
  <outline>
    <contour>
      <point x="72" y="700" type="line"/>
      <point x="275" y="700" type="line"/>
      <point x="275" y="0" type="line"/>
      <point x="72" y="0" type="line"/>
    </contour>
    <contour>
      <point x="501" y="700" type="line"/>
      <point x="728" y="700" type="line"/>
      <point x="450" y="372" type="line"/>
      <point x="744" y="0" type="line"/>
      <point x="508" y="0" type="line"/>
      <point x="218" y="366" type="line"/>
    </contour>
  </outline>
</glyph>
<glyph name="Q" format="1">
  <advance width="885"/>
  <unicode hex="0051"/>
  <outline>
    <contour>
      <point x="238" y="350" type="curve" smooth="yes"/>
      <point x="238" y="220"/>
      <point x="328" y="142"/>
      <point x="436" y="142" type="curve" smooth="yes"/>
      <point x="544" y="142"/>
      <point x="617" y="212"/>
      <point x="617" y="326" type="curve" smooth="yes"/>
      <point x="617" y="440"/>
      <point x="548" y="541"/>
      <point x="420" y="541" type="curve" smooth="yes"/>
      <point x="312" y="541"/>
      <point x="238" y="464"/>
    </contour>
    <contour>
      <point x="32" y="350" type="curve" smooth="yes"/>
      <point x="32" y="570"/>
      <point x="204" y="718"/>
      <point x="420" y="718" type="curve" smooth="yes"/>
      <point x="640" y="718"/>
      <point x="799" y="570"/>
      <point x="799" y="350" type="curve" smooth="yes"/>
      <point x="799" y="130"/>
      <point x="644" y="-26"/>
      <point x="420" y="-26" type="curve" smooth="yes"/>
      <point x="196" y="-26"/>
      <point x="32" y="130"/>
    </contour>
    <contour>
      <point x="350" y="300" type="line"/>
      <point x="545" y="300" type="line"/>
      <point x="894" y="-16" type="line"/>
      <point x="690" y="-16" type="line"/>
    </contour>
  </outline>
</glyph>
<glyph name="X" format="1">
  <advance width="725"/>
  <unicode hex="0058"/>
  <outline>
    <contour>
      <point x="466" y="700" type="line"/>
      <point x="709" y="700" type="line"/>
      <point x="486" y="356" type="line"/>
      <point x="724" y="0" type="line"/>
      <point x="482" y="0" type="line"/>
      <point x="364" y="214" type="line"/>
      <point x="244" y="0" type="line"/>
      <point x="2" y="0" type="line"/>
      <point x="246" y="356" type="line"/>
      <point x="26" y="700" type="line"/>
      <point x="269" y="700" type="line"/>
      <point x="366" y="514" type="line"/>
    </contour>
  </outline>
</glyph>
<glyph name="bracketright" format="1">
  <advance width="381"/>
  <unicode hex="005D"/>
  <outline>
    <contour>
      <point x="121" y="-72" type="line"/>
      <point x="121" y="632" type="line"/>
      <point x="20" y="632" type="line"/>
      <point x="20" y="780" type="line"/>
      <point x="294" y="780" type="line"/>
      <point x="294" y="-220" type="line"/>
      <point x="20" y="-220" type="line"/>
      <point x="20" y="-72" type="line"/>
    </contour>
  </outline>
</glyph>
<glyph name="b" format="1">
  <advance width="630"/>
  <unicode hex="0062"/>
  <outline>
    <contour>
      <point x="228" y="780" type="line"/>
      <point x="228" y="0" type="line"/>
      <point x="54" y="0" type="line"/>
      <point x="54" y="780" type="line"/>
    </contour>
    <contour>
      <point x="600" y="230" type="curve" smooth="yes"/>
      <point x="600" y="72"/>
      <point x="492" y="-10"/>
      <point x="384" y="-10" type="curve" smooth="yes"/>
      <point x="269" y="-10"/>
      <point x="183" y="81"/>
      <point x="183" y="230" type="curve" smooth="yes"/>
      <point x="183" y="379"/>
      <point x="269" y="470"/>
      <point x="384" y="470" type="curve" smooth="yes"/>
      <point x="492" y="470"/>
      <point x="600" y="388"/>
    </contour>
    <contour>
      <point x="418" y="230" type="curve" smooth="yes"/>
      <point x="418" y="292"/>
      <point x="374" y="334"/>
      <point x="322" y="334" type="curve" smooth="yes"/>
      <point x="276" y="334"/>
      <point x="228" y="296"/>
      <point x="228" y="230" type="curve" smooth="yes"/>
      <point x="228" y="164"/>
      <point x="276" y="126"/>
      <point x="322" y="126" type="curve" smooth="yes"/>
      <point x="374" y="126"/>
      <point x="418" y="168"/>
    </contour>
  </outline>
</glyph>
<glyph name="o" format="1">
  <advance width="602"/>
  <unicode hex="006F"/>
  <outline>
    <contour>
      <point x="31" y="230" type="curve" smooth="yes"/>
      <point x="31" y="378"/>
      <point x="147" y="470"/>
      <point x="302" y="470" type="curve" smooth="yes"/>
      <point x="457" y="470"/>
      <point x="572" y="378"/>
      <point x="572" y="230" type="curve" smooth="yes"/>
      <point x="572" y="82"/>
      <point x="457" y="-10"/>
      <point x="302" y="-10" type="curve" smooth="yes"/>
      <point x="147" y="-10"/>
      <point x="31" y="82"/>
    </contour>
    <contour>
      <point x="210" y="230" type="curve" smooth="yes"/>
      <point x="210" y="166"/>
      <point x="252" y="130"/>
      <point x="302" y="130" type="curve" smooth="yes"/>
      <point x="352" y="130"/>
      <point x="394" y="166"/>
      <point x="394" y="230" type="curve" smooth="yes"/>
      <point x="394" y="294"/>
      <point x="352" y="331"/>
      <point x="302" y="331" type="curve" smooth="yes"/>
      <point x="252" y="331"/>
      <point x="210" y="294"/>
    </contour>
  </outline>
</glyph>
<glyph name="u" format="1">
  <advance width="590"/>
  <unicode hex="0075"/>
  <outline>
    <contour>
      <point x="362" y="0" type="line"/>
      <point x="362" y="460" type="line"/>
      <point x="536" y="460" type="line"/>
      <point x="536" y="0" type="line"/>
    </contour>
    <contour>
      <point x="236" y="180" type="line" smooth="yes"/>
      <point x="236" y="132"/>
      <point x="249" y="105"/>
      <point x="294" y="105" type="curve" smooth="yes"/>
      <point x="336" y="105"/>
      <point x="362" y="130"/>
      <point x="362" y="180" type="curve"/>
      <point x="388" y="188" type="line"/>
      <point x="388" y="79"/>
      <point x="341" y="-10"/>
      <point x="221" y="-10" type="curve" smooth="yes"/>
      <point x="101" y="-10"/>
      <point x="55" y="52"/>
      <point x="55" y="162" type="curve" smooth="yes"/>
      <point x="55" y="460" type="line"/>
      <point x="236" y="460" type="line"/>
    </contour>
  </outline>
</glyph>
<glyph name="yen" format="1">
  <advance width="696"/>
  <unicode hex="00A5"/>
  <outline>
    <contour>
      <point x="248" y="360" type="line"/>
      <point x="448" y="360" type="line"/>
      <point x="448" y="0" type="line"/>
      <point x="248" y="0" type="line"/>
    </contour>
    <contour>
      <point x="472" y="700" type="line"/>
      <point x="696" y="700" type="line"/>
      <point x="347" y="111" type="line"/>
      <point x="-1" y="700" type="line"/>
      <point x="224" y="700" type="line"/>
      <point x="347" y="456" type="line"/>
    </contour>
    <contour>
      <point x="45" y="108" type="line"/>
      <point x="45" y="215" type="line"/>
      <point x="648" y="215" type="line"/>
      <point x="648" y="108" type="line"/>
    </contour>
    <contour>
      <point x="45" y="258" type="line"/>
      <point x="45" y="365" type="line"/>
      <point x="648" y="365" type="line"/>
      <point x="648" y="258" type="line"/>
    </contour>
  </outline>
</glyph>
<glyph name="dieresis" format="1">
  <advance width="523"/>
  <unicode hex="00A8"/>
  <outline>
    <contour>
      <point x="284" y="624" type="curve" smooth="yes"/>
      <point x="284" y="680"/>
      <point x="328" y="727"/>
      <point x="390" y="727" type="curve" smooth="yes"/>
      <point x="452" y="727"/>
      <point x="496" y="680"/>
      <point x="496" y="624" type="curve" smooth="yes"/>
      <point x="496" y="568"/>
      <point x="452" y="520"/>
      <point x="390" y="520" type="curve" smooth="yes"/>
      <point x="328" y="520"/>
      <point x="284" y="568"/>
    </contour>
    <contour>
      <point x="28" y="624" type="curve" smooth="yes"/>
      <point x="28" y="680"/>
      <point x="72" y="727"/>
      <point x="134" y="727" type="curve" smooth="yes"/>
      <point x="196" y="727"/>
      <point x="240" y="680"/>
      <point x="240" y="624" type="curve" smooth="yes"/>
      <point x="240" y="568"/>
      <point x="196" y="520"/>
      <point x="134" y="520" type="curve" smooth="yes"/>
      <point x="72" y="520"/>
      <point x="28" y="568"/>
    </contour>
  </outline>
</glyph>
<glyph name="paragraph" format="1">
  <advance width="699"/>
  <unicode hex="00B6"/>
  <outline>
    <contour>
      <point x="288" y="598" type="line"/>
      <point x="288" y="700" type="line"/>
      <point x="528" y="700" type="line"/>
      <point x="528" y="598" type="line"/>
    </contour>
    <contour>
      <point x="488" y="700" type="line"/>
      <point x="640" y="700" type="line"/>
      <point x="640" y="-220" type="line"/>
      <point x="488" y="-220" type="line"/>
    </contour>
    <contour>
      <point x="288" y="700" type="line"/>
      <point x="439" y="700" type="line"/>
      <point x="439" y="-220" type="line"/>
      <point x="288" y="-220" type="line"/>
    </contour>
    <contour>
      <point x="288" y="270" type="line"/>
      <point x="163" y="270"/>
      <point x="60" y="346"/>
      <point x="60" y="485" type="curve" smooth="yes"/>
      <point x="60" y="624"/>
      <point x="163" y="700"/>
      <point x="288" y="700" type="curve"/>
    </contour>
  </outline>
</glyph>
<glyph name="cedilla" format="1">
  <advance width="406"/>
  <unicode hex="00B8"/>
  <outline>
    <contour>
      <point x="180" y="74" type="line"/>
      <point x="305" y="70" type="line"/>
      <point x="187" y="-86" type="line"/>
      <point x="92" y="-128" type="line"/>
    </contour>
    <contour>
      <point x="354" y="-155" type="curve"/>
      <point x="244" y="-144" type="line"/>
      <point x="244" y="-117"/>
      <point x="211" y="-113"/>
      <point x="181" y="-113" type="curve" smooth="yes"/>
      <point x="171" y="-113"/>
      <point x="132" y="-114"/>
      <point x="92" y="-128" type="curve"/>
      <point x="163" y="-82" type="line"/>
      <point x="191" y="-54"/>
      <point x="218" y="-50"/>
      <point x="256" y="-50" type="curve" smooth="yes"/>
      <point x="298" y="-50"/>
      <point x="354" y="-84"/>
    </contour>
    <contour>
      <point x="354" y="-155" type="line"/>
      <point x="354" y="-231"/>
      <point x="281" y="-269"/>
      <point x="215" y="-269" type="curve" smooth="yes"/>
      <point x="153" y="-269"/>
      <point x="106" y="-259"/>
      <point x="54" y="-229" type="curve"/>
      <point x="104" y="-152" type="line"/>
      <point x="132" y="-171"/>
      <point x="171" y="-178"/>
      <point x="189" y="-178" type="curve" smooth="yes"/>
      <point x="223" y="-178"/>
      <point x="244" y="-168"/>
      <point x="244" y="-144" type="curve"/>
    </contour>
  </outline>
</glyph>
<glyph name="uni00B9" format="1">
  <advance width="486"/>
  <unicode hex="00B9"/>
  <outline>
    <contour>
      <point x="128" y="560" type="line"/>
      <point x="128" y="660" type="line"/>
      <point x="348" y="702" type="line"/>
      <point x="348" y="274" type="line"/>
      <point x="236" y="274" type="line"/>
      <point x="236" y="586" type="line"/>
    </contour>
  </outline>
</glyph>
<glyph name="threequarters" format="1">
  <advance width="897"/>
  <unicode hex="00BE"/>
  <outline>
    <contour>
      <point x="697" y="700" type="line"/>
      <point x="802" y="700" type="line"/>
      <point x="282" y="0" type="line"/>
      <point x="177" y="0" type="line"/>
    </contour>
    <contour>
      <point x="167" y="482" type="curve"/>
      <point x="167" y="532" type="line"/>
      <point x="211" y="532"/>
      <point x="242" y="556"/>
      <point x="242" y="584" type="curve" smooth="yes"/>
      <point x="242" y="604"/>
      <point x="229" y="617"/>
      <point x="200" y="617" type="curve" smooth="yes"/>
      <point x="170" y="617"/>
      <point x="150" y="600"/>
      <point x="150" y="572" type="curve"/>
      <point x="42" y="572" type="line"/>
      <point x="42" y="649"/>
      <point x="104" y="708"/>
      <point x="200" y="708" type="curve" smooth="yes"/>
      <point x="301" y="708"/>
      <point x="358" y="657"/>
      <point x="358" y="591" type="curve" smooth="yes"/>
      <point x="358" y="515"/>
      <point x="273" y="482"/>
    </contour>
    <contour>
      <point x="195" y="269" type="curve" smooth="yes"/>
      <point x="87" y="269"/>
      <point x="24" y="343"/>
      <point x="24" y="420" type="curve"/>
      <point x="140" y="420" type="line"/>
      <point x="140" y="378"/>
      <point x="169" y="361"/>
      <point x="200" y="361" type="curve" smooth="yes"/>
      <point x="231" y="361"/>
      <point x="254" y="372"/>
      <point x="254" y="406" type="curve" smooth="yes"/>
      <point x="254" y="436"/>
      <point x="231" y="460"/>
      <point x="167" y="460" type="curve"/>
      <point x="167" y="517" type="line"/>
      <point x="287" y="517"/>
      <point x="370" y="482"/>
      <point x="370" y="396" type="curve" smooth="yes"/>
      <point x="370" y="322"/>
      <point x="307" y="269"/>
    </contour>
    <contour>
      <point x="464" y="72" type="line"/>
      <point x="560" y="154" type="line"/>
      <point x="747" y="154" type="line" smooth="yes"/>
      <point x="757" y="170" type="line" smooth="yes"/>
      <point x="870" y="170" type="line"/>
      <point x="870" y="72" type="line"/>
    </contour>
    <contour>
      <point x="582" y="110" type="line"/>
      <point x="464" y="72" type="line"/>
      <point x="712" y="420" type="line"/>
      <point x="804" y="420" type="line"/>
      <point x="804" y="0" type="line"/>
      <point x="682" y="0" type="line"/>
      <point x="682" y="94" type="line" smooth="yes"/>
      <point x="696" y="100" type="line" smooth="yes"/>
      <point x="696" y="264" type="line"/>
    </contour>
  </outline>
</glyph>
<glyph name="Aring" format="1">
  <advance width="757"/>
  <unicode hex="00C5"/>
  <outline>
    <contour>
      <point x="196" y="112" type="line"/>
      <point x="202" y="256" type="line"/>
      <point x="560" y="256" type="line"/>
      <point x="566" y="112" type="line"/>
    </contour>
    <contour>
      <point x="379" y="412" type="line"/>
      <point x="287" y="203" type="line"/>
      <point x="299" y="159" type="line"/>
      <point x="218" y="0" type="line"/>
      <point x="-4" y="0" type="line"/>
      <point x="379" y="747" type="line"/>
      <point x="760" y="0" type="line"/>
      <point x="540" y="0" type="line"/>
      <point x="460" y="152" type="line"/>
      <point x="471" y="202" type="line"/>
    </contour>
    <contour>
      <point x="246" y="801" type="curve" smooth="yes"/>
      <point x="246" y="873"/>
      <point x="303" y="922"/>
      <point x="378" y="922" type="curve" smooth="yes"/>
      <point x="453" y="922"/>
      <point x="510" y="873"/>
      <point x="510" y="801" type="curve" smooth="yes"/>
      <point x="510" y="729"/>
      <point x="453" y="681"/>
      <point x="378" y="681" type="curve" smooth="yes"/>
      <point x="303" y="681"/>
      <point x="246" y="729"/>
    </contour>
    <contour>
      <point x="334" y="801" type="curve" smooth="yes"/>
      <point x="334" y="772"/>
      <point x="353" y="756"/>
      <point x="378" y="756" type="curve" smooth="yes"/>
      <point x="403" y="756"/>
      <point x="424" y="772"/>
      <point x="424" y="801" type="curve" smooth="yes"/>
      <point x="424" y="830"/>
      <point x="403" y="848"/>
      <point x="378" y="848" type="curve" smooth="yes"/>
      <point x="353" y="848"/>
      <point x="334" y="830"/>
    </contour>
  </outline>
</glyph>
<glyph name="Ccedilla" format="1">
  <advance width="705"/>
  <unicode hex="00C7"/>
  <outline>
    <contour>
      <point x="246" y="350" type="curve" smooth="yes"/>
      <point x="246" y="232"/>
      <point x="334" y="166"/>
      <point x="440" y="166" type="curve" smooth="yes"/>
      <point x="539" y="166"/>
      <point x="599" y="210"/>
      <point x="644" y="256" type="curve"/>
      <point x="644" y="50" type="line"/>
      <point x="588" y="10"/>
      <point x="528" y="-18"/>
      <point x="426" y="-18" type="curve" smooth="yes"/>
      <point x="192" y="-18"/>
      <point x="32" y="129"/>
      <point x="32" y="350" type="curve" smooth="yes"/>
      <point x="32" y="571"/>
      <point x="192" y="718"/>
      <point x="426" y="718" type="curve" smooth="yes"/>
      <point x="528" y="718"/>
      <point x="588" y="690"/>
      <point x="644" y="650" type="curve"/>
      <point x="644" y="444" type="line"/>
      <point x="599" y="490"/>
      <point x="539" y="534"/>
      <point x="440" y="534" type="curve" smooth="yes"/>
      <point x="334" y="534"/>
      <point x="246" y="468"/>
    </contour>
    <contour>
      <point x="356" y="61" type="line"/>
      <point x="480" y="56" type="line"/>
      <point x="362" y="-100" type="line"/>
      <point x="267" y="-142" type="line"/>
    </contour>
    <contour>
      <point x="530" y="-169" type="curve"/>
      <point x="420" y="-158" type="line"/>
      <point x="420" y="-131"/>
      <point x="386" y="-126"/>
      <point x="356" y="-126" type="curve" smooth="yes"/>
      <point x="346" y="-126"/>
      <point x="307" y="-128"/>
      <point x="267" y="-142" type="curve"/>
      <point x="338" y="-96" type="line"/>
      <point x="366" y="-68"/>
      <point x="394" y="-64"/>
      <point x="432" y="-64" type="curve" smooth="yes"/>
      <point x="474" y="-64"/>
      <point x="530" y="-98"/>
    </contour>
    <contour>
      <point x="530" y="-169" type="line"/>
      <point x="530" y="-245"/>
      <point x="456" y="-282"/>
      <point x="390" y="-282" type="curve" smooth="yes"/>
      <point x="328" y="-282"/>
      <point x="282" y="-273"/>
      <point x="230" y="-243" type="curve"/>
      <point x="280" y="-165" type="line"/>
      <point x="308" y="-184"/>
      <point x="346" y="-191"/>
      <point x="364" y="-191" type="curve" smooth="yes"/>
      <point x="398" y="-191"/>
      <point x="420" y="-182"/>
      <point x="420" y="-158" type="curve"/>
    </contour>
  </outline>
</glyph>
<glyph name="Igrave" format="1">
  <advance width="342"/>
  <unicode hex="00CC"/>
  <outline>
    <contour>
      <point x="72" y="700" type="line"/>
      <point x="270" y="700" type="line"/>
      <point x="270" y="0" type="line"/>
      <point x="72" y="0" type="line"/>
    </contour>
    <contour>
      <point x="-8" y="936" type="line"/>
      <point x="120" y="992" type="line"/>
      <point x="270" y="832" type="line"/>
      <point x="172" y="786" type="line"/>
    </contour>
  </outline>
</glyph>
<glyph name="Otilde" format="1">
  <advance width="830"/>
  <unicode hex="00D5"/>
  <outline>
    <contour>
      <point x="238" y="350" type="curve" smooth="yes"/>
      <point x="238" y="236"/>
      <point x="307" y="159"/>
      <point x="415" y="159" type="curve" smooth="yes"/>
      <point x="523" y="159"/>
      <point x="592" y="236"/>
      <point x="592" y="350" type="curve" smooth="yes"/>
      <point x="592" y="464"/>
      <point x="527" y="541"/>
      <point x="415" y="541" type="curve" smooth="yes"/>
      <point x="307" y="541"/>
      <point x="238" y="464"/>
    </contour>
    <contour>
      <point x="32" y="350" type="curve" smooth="yes"/>
      <point x="32" y="570"/>
      <point x="199" y="718"/>
      <point x="415" y="718" type="curve" smooth="yes"/>
      <point x="635" y="718"/>
      <point x="799" y="570"/>
      <point x="799" y="350" type="curve" smooth="yes"/>
      <point x="799" y="130"/>
      <point x="639" y="-26"/>
      <point x="415" y="-26" type="curve" smooth="yes"/>
      <point x="191" y="-26"/>
      <point x="32" y="130"/>
    </contour>
    <contour>
      <point x="254" y="852" type="line"/>
      <point x="264" y="901"/>
      <point x="313" y="934"/>
      <point x="358" y="934" type="curve" smooth="yes"/>
      <point x="423" y="934"/>
      <point x="428" y="888"/>
      <point x="482" y="888" type="curve" smooth="yes"/>
      <point x="501" y="888"/>
      <point x="518" y="904"/>
      <point x="538" y="936" type="curve"/>
      <point x="584" y="892" type="line"/>
      <point x="568" y="855"/>
      <point x="528" y="820"/>
      <point x="478" y="820" type="curve" smooth="yes"/>
      <point x="423" y="820"/>
      <point x="403" y="866"/>
      <point x="358" y="866" type="curve" smooth="yes"/>
      <point x="317" y="866"/>
      <point x="308" y="831"/>
      <point x="308" y="816" type="curve"/>
    </contour>
  </outline>
</glyph>
<glyph name="Uacute" format="1">
  <advance width="723"/>
  <unicode hex="00DA"/>
  <outline>
    <contour>
      <point x="66" y="700" type="line"/>
      <point x="262" y="700" type="line"/>
      <point x="262" y="246" type="line" smooth="yes"/>
      <point x="262" y="182"/>
      <point x="294" y="139"/>
      <point x="362" y="139" type="curve" smooth="yes"/>
      <point x="430" y="139"/>
      <point x="462" y="182"/>
      <point x="462" y="246" type="curve" smooth="yes"/>
      <point x="462" y="700" type="line"/>
      <point x="656" y="700" type="line"/>
      <point x="656" y="230" type="line" smooth="yes"/>
      <point x="656" y="42"/>
      <point x="524" y="-34"/>
      <point x="362" y="-34" type="curve" smooth="yes"/>
      <point x="200" y="-34"/>
      <point x="66" y="42"/>
      <point x="66" y="230" type="curve" smooth="yes"/>
    </contour>
    <contour>
      <point x="532" y="928" type="line"/>
      <point x="352" y="778" type="line"/>
      <point x="254" y="824" type="line"/>
      <point x="404" y="984" type="line"/>
    </contour>
  </outline>
</glyph>
<glyph name="Udieresis" format="1">
  <advance width="723"/>
  <unicode hex="00DC"/>
  <outline>
    <contour>
      <point x="66" y="700" type="line"/>
      <point x="262" y="700" type="line"/>
      <point x="262" y="246" type="line" smooth="yes"/>
      <point x="262" y="182"/>
      <point x="294" y="139"/>
      <point x="362" y="139" type="curve" smooth="yes"/>
      <point x="430" y="139"/>
      <point x="462" y="182"/>
      <point x="462" y="246" type="curve" smooth="yes"/>
      <point x="462" y="700" type="line"/>
      <point x="656" y="700" type="line"/>
      <point x="656" y="230" type="line" smooth="yes"/>
      <point x="656" y="42"/>
      <point x="524" y="-34"/>
      <point x="362" y="-34" type="curve" smooth="yes"/>
      <point x="200" y="-34"/>
      <point x="66" y="42"/>
      <point x="66" y="230" type="curve" smooth="yes"/>
    </contour>
    <contour>
      <point x="401" y="882" type="curve" smooth="yes"/>
      <point x="401" y="938"/>
      <point x="446" y="986"/>
      <point x="508" y="986" type="curve" smooth="yes"/>
      <point x="570" y="986"/>
      <point x="614" y="938"/>
      <point x="614" y="882" type="curve" smooth="yes"/>
      <point x="614" y="826"/>
      <point x="570" y="778"/>
      <point x="508" y="778" type="curve" smooth="yes"/>
      <point x="446" y="778"/>
      <point x="401" y="826"/>
    </contour>
    <contour>
      <point x="110" y="882" type="curve" smooth="yes"/>
      <point x="110" y="938"/>
      <point x="154" y="986"/>
      <point x="216" y="986" type="curve" smooth="yes"/>
      <point x="278" y="986"/>
      <point x="322" y="938"/>
      <point x="322" y="882" type="curve" smooth="yes"/>
      <point x="322" y="826"/>
      <point x="278" y="778"/>
      <point x="216" y="778" type="curve" smooth="yes"/>
      <point x="154" y="778"/>
      <point x="110" y="826"/>
    </contour>
  </outline>
</glyph>
<glyph name="Yacute" format="1">
  <advance width="690"/>
  <unicode hex="00DD"/>
  <outline>
    <contour>
      <point x="246" y="360" type="line"/>
      <point x="444" y="360" type="line"/>
      <point x="444" y="0" type="line"/>
      <point x="246" y="0" type="line"/>
    </contour>
    <contour>
      <point x="468" y="700" type="line"/>
      <point x="694" y="700" type="line"/>
      <point x="345" y="111" type="line"/>
      <point x="-4" y="700" type="line"/>
      <point x="222" y="700" type="line"/>
      <point x="345" y="456" type="line"/>
    </contour>
    <contour>
      <point x="516" y="928" type="line"/>
      <point x="336" y="778" type="line"/>
      <point x="238" y="824" type="line"/>
      <point x="388" y="984" type="line"/>
    </contour>
  </outline>
</glyph>
<glyph name="Thorn" format="1">
  <advance width="631"/>
  <unicode hex="00DE"/>
  <outline>
    <contour>
      <point x="322" y="124" type="curve"/>
      <point x="322" y="272" type="line"/>
      <point x="395" y="272"/>
      <point x="435" y="292"/>
      <point x="435" y="354" type="curve" smooth="yes"/>
      <point x="435" y="416"/>
      <point x="395" y="436"/>
      <point x="322" y="436" type="curve"/>
      <point x="322" y="584" type="line"/>
      <point x="514" y="584"/>
      <point x="606" y="500"/>
      <point x="606" y="354" type="curve" smooth="yes"/>
      <point x="606" y="208"/>
      <point x="514" y="124"/>
    </contour>
    <contour>
      <point x="188" y="124" type="line"/>
      <point x="188" y="272" type="line"/>
      <point x="322" y="272" type="line"/>
      <point x="322" y="124" type="line"/>
    </contour>
    <contour>
      <point x="188" y="436" type="line"/>
      <point x="188" y="584" type="line"/>
      <point x="322" y="584" type="line"/>
      <point x="322" y="436" type="line"/>
    </contour>
    <contour>
      <point x="80" y="700" type="line"/>
      <point x="246" y="700" type="line"/>
      <point x="246" y="0" type="line"/>
      <point x="80" y="0" type="line"/>
    </contour>
  </outline>
</glyph>
<glyph name="atilde" format="1">
  <advance width="562"/>
  <unicode hex="00E3"/>
  <outline>
    <contour>
      <point x="196" y="138" type="curve" smooth="yes"/>
      <point x="196" y="109"/>
      <point x="220" y="98"/>
      <point x="252" y="98" type="curve" smooth="yes"/>
      <point x="300" y="98"/>
      <point x="345" y="118"/>
      <point x="345" y="188" type="curve"/>
      <point x="361" y="130" type="line"/>
      <point x="361" y="41"/>
      <point x="287" y="-10"/>
      <point x="192" y="-10" type="curve" smooth="yes"/>
      <point x="88" y="-10"/>
      <point x="22" y="41"/>
      <point x="22" y="129" type="curve" smooth="yes"/>
      <point x="22" y="219"/>
      <point x="102" y="277"/>
      <point x="222" y="277" type="curve" smooth="yes"/>
      <point x="286" y="277"/>
      <point x="356" y="255"/>
      <point x="378" y="232" type="curve"/>
      <point x="378" y="152" type="line"/>
      <point x="347" y="176"/>
      <point x="316" y="188"/>
      <point x="266" y="188" type="curve" smooth="yes"/>
      <point x="223" y="188"/>
      <point x="196" y="168"/>
    </contour>
    <contour>
      <point x="120" y="308" type="curve"/>
      <point x="64" y="422" type="line"/>
      <point x="122" y="447"/>
      <point x="201" y="474"/>
      <point x="284" y="474" type="curve" smooth="yes"/>
      <point x="414" y="474"/>
      <point x="510" y="420"/>
      <point x="510" y="322" type="curve" smooth="yes"/>
      <point x="510" y="0" type="line"/>
      <point x="345" y="0" type="line"/>
      <point x="345" y="283" type="line" smooth="yes"/>
      <point x="345" y="320"/>
      <point x="318" y="346"/>
      <point x="268" y="346" type="curve" smooth="yes"/>
      <point x="202" y="346"/>
      <point x="142" y="320"/>
    </contour>
    <contour>
      <point x="79" y="608" type="line"/>
      <point x="89" y="657"/>
      <point x="134" y="707"/>
      <point x="204" y="707" type="curve" smooth="yes"/>
      <point x="270" y="707"/>
      <point x="287" y="654"/>
      <point x="344" y="654" type="curve" smooth="yes"/>
      <point x="372" y="654"/>
      <point x="392" y="676"/>
      <point x="412" y="708" type="curve"/>
      <point x="490" y="624" type="line"/>
      <point x="474" y="587"/>
      <point x="414" y="534"/>
      <point x="348" y="534" type="curve" smooth="yes"/>
      <point x="293" y="534"/>
      <point x="253" y="590"/>
      <point x="202" y="590" type="curve" smooth="yes"/>
      <point x="165" y="590"/>
      <point x="156" y="554"/>
      <point x="156" y="539" type="curve"/>
    </contour>
  </outline>
</glyph>
<glyph name="ae" format="1">
  <advance width="917"/>
  <unicode hex="00E6"/>
  <outline>
    <contour>
      <point x="196" y="138" type="curve" smooth="yes"/>
      <point x="196" y="109"/>
      <point x="220" y="98"/>
      <point x="252" y="98" type="curve" smooth="yes"/>
      <point x="300" y="98"/>
      <point x="345" y="118"/>
      <point x="345" y="188" type="curve"/>
      <point x="424" y="130" type="line"/>
      <point x="424" y="41"/>
      <point x="356" y="-10"/>
      <point x="220" y="-10" type="curve" smooth="yes"/>
      <point x="96" y="-10"/>
      <point x="22" y="41"/>
      <point x="22" y="129" type="curve" smooth="yes"/>
      <point x="22" y="219"/>
      <point x="102" y="277"/>
      <point x="222" y="277" type="curve" smooth="yes"/>
      <point x="286" y="277"/>
      <point x="356" y="255"/>
      <point x="378" y="232" type="curve"/>
      <point x="378" y="152" type="line"/>
      <point x="347" y="176"/>
      <point x="316" y="188"/>
      <point x="266" y="188" type="curve" smooth="yes"/>
      <point x="223" y="188"/>
      <point x="196" y="168"/>
    </contour>
    <contour>
      <point x="120" y="308" type="curve"/>
      <point x="64" y="422" type="line"/>
      <point x="122" y="447"/>
      <point x="201" y="474"/>
      <point x="284" y="474" type="curve" smooth="yes"/>
      <point x="414" y="474"/>
      <point x="450" y="420"/>
      <point x="450" y="322" type="curve" smooth="yes"/>
      <point x="450" y="130" type="line"/>
      <point x="345" y="130" type="line"/>
      <point x="345" y="281" type="line" smooth="yes"/>
      <point x="345" y="318"/>
      <point x="318" y="346"/>
      <point x="268" y="346" type="curve" smooth="yes"/>
      <point x="202" y="346"/>
      <point x="142" y="320"/>
    </contour>
    <contour>
      <point x="422" y="194" type="line"/>
      <point x="422" y="283" type="line"/>
      <point x="866" y="283" type="line"/>
      <point x="882" y="194" type="line"/>
    </contour>
    <contour>
      <point x="701" y="242" type="line" smooth="yes"/>
      <point x="701" y="320"/>
      <point x="680" y="360"/>
      <point x="622" y="360" type="curve" smooth="yes"/>
      <point x="566" y="360"/>
      <point x="534" y="322"/>
      <point x="534" y="252" type="curve"/>
      <point x="532" y="230" type="line"/>
      <point x="532" y="140"/>
      <point x="576" y="110"/>
      <point x="626" y="110" type="curve" smooth="yes"/>
      <point x="676" y="110"/>
      <point x="712" y="128"/>
      <point x="731" y="162" type="curve"/>
      <point x="888" y="132" type="line"/>
      <point x="842" y="46"/>
      <point x="768" y="-10"/>
      <point x="632" y="-10" type="curve" smooth="yes"/>
      <point x="450" y="-10"/>
      <point x="400" y="91"/>
      <point x="400" y="230" type="curve" smooth="yes"/>
      <point x="400" y="247"/>
      <point x="403" y="263"/>
      <point x="406" y="279" type="curve" smooth="yes"/>
      <point x="425" y="392"/>
      <point x="508" y="470"/>
      <point x="652" y="470" type="curve" smooth="yes"/>
      <point x="794" y="470"/>
      <point x="884" y="383"/>
      <point x="884" y="238" type="curve" smooth="yes"/>
      <point x="884" y="230"/>
      <point x="884" y="212"/>
      <point x="882" y="194" type="curve"/>
      <point x="701" y="214" type="line"/>
    </contour>
  </outline>
</glyph>
<glyph name="eacute" format="1">
  <advance width="591"/>
  <unicode hex="00E9"/>
  <outline>
    <contour>
      <point x="96" y="194" type="line"/>
      <point x="96" y="283" type="line"/>
      <point x="540" y="283" type="line"/>
      <point x="556" y="194" type="line"/>
    </contour>
    <contour>
      <point x="375" y="242" type="line" smooth="yes"/>
      <point x="375" y="320"/>
      <point x="354" y="360"/>
      <point x="296" y="360" type="curve" smooth="yes"/>
      <point x="240" y="360"/>
      <point x="208" y="322"/>
      <point x="208" y="252" type="curve"/>
      <point x="206" y="230" type="line"/>
      <point x="206" y="140"/>
      <point x="250" y="110"/>
      <point x="300" y="110" type="curve" smooth="yes"/>
      <point x="350" y="110"/>
      <point x="385" y="128"/>
      <point x="404" y="162" type="curve"/>
      <point x="562" y="132" type="line"/>
      <point x="516" y="46"/>
      <point x="442" y="-10"/>
      <point x="306" y="-10" type="curve" smooth="yes"/>
      <point x="124" y="-10"/>
      <point x="31" y="91"/>
      <point x="31" y="230" type="curve" smooth="yes"/>
      <point x="31" y="247"/>
      <point x="32" y="263"/>
      <point x="35" y="279" type="curve" smooth="yes"/>
      <point x="54" y="392"/>
      <point x="140" y="470"/>
      <point x="300" y="470" type="curve" smooth="yes"/>
      <point x="470" y="470"/>
      <point x="558" y="383"/>
      <point x="558" y="238" type="curve" smooth="yes"/>
      <point x="558" y="230"/>
      <point x="558" y="212"/>
      <point x="556" y="194" type="curve"/>
      <point x="375" y="214" type="line"/>
    </contour>
    <contour>
      <point x="460" y="684" type="line"/>
      <point x="280" y="534" type="line"/>
      <point x="182" y="580" type="line"/>
      <point x="332" y="740" type="line"/>
    </contour>
  </outline>
</glyph>
<glyph name="iacute" format="1">
  <advance width="281"/>
  <unicode hex="00ED"/>
  <outline>
    <contour>
      <point x="56" y="460" type="line"/>
      <point x="224" y="460" type="line"/>
      <point x="224" y="0" type="line"/>
      <point x="56" y="0" type="line"/>
    </contour>
    <contour>
      <point x="316" y="684" type="line"/>
      <point x="136" y="534" type="line"/>
      <point x="38" y="580" type="line"/>
      <point x="188" y="740" type="line"/>
    </contour>
  </outline>
</glyph>
<glyph name="idieresis" format="1">
  <advance width="281"/>
  <unicode hex="00EF"/>
  <outline>
    <contour>
      <point x="56" y="460" type="line"/>
      <point x="224" y="460" type="line"/>
      <point x="224" y="0" type="line"/>
      <point x="56" y="0" type="line"/>
    </contour>
    <contour>
      <point x="163" y="640" type="curve" smooth="yes"/>
      <point x="163" y="696"/>
      <point x="207" y="744"/>
      <point x="269" y="744" type="curve" smooth="yes"/>
      <point x="331" y="744"/>
      <point x="375" y="696"/>
      <point x="375" y="640" type="curve" smooth="yes"/>
      <point x="375" y="584"/>
      <point x="331" y="536"/>
      <point x="269" y="536" type="curve" smooth="yes"/>
      <point x="207" y="536"/>
      <point x="163" y="584"/>
    </contour>
    <contour>
      <point x="-94" y="640" type="curve" smooth="yes"/>
      <point x="-94" y="696"/>
      <point x="-50" y="744"/>
      <point x="12" y="744" type="curve" smooth="yes"/>
      <point x="74" y="744"/>
      <point x="118" y="696"/>
      <point x="118" y="640" type="curve" smooth="yes"/>
      <point x="118" y="584"/>
      <point x="74" y="536"/>
      <point x="12" y="536" type="curve" smooth="yes"/>
      <point x="-50" y="536"/>
      <point x="-94" y="584"/>
    </contour>
  </outline>
</glyph>
<glyph name="ocircumflex" format="1">
  <advance width="602"/>
  <unicode hex="00F4"/>
  <outline>
    <contour>
      <point x="31" y="230" type="curve" smooth="yes"/>
      <point x="31" y="378"/>
      <point x="147" y="470"/>
      <point x="302" y="470" type="curve" smooth="yes"/>
      <point x="457" y="470"/>
      <point x="572" y="378"/>
      <point x="572" y="230" type="curve" smooth="yes"/>
      <point x="572" y="82"/>
      <point x="457" y="-10"/>
      <point x="302" y="-10" type="curve" smooth="yes"/>
      <point x="147" y="-10"/>
      <point x="31" y="82"/>
    </contour>
    <contour>
      <point x="210" y="230" type="curve" smooth="yes"/>
      <point x="210" y="166"/>
      <point x="252" y="130"/>
      <point x="302" y="130" type="curve" smooth="yes"/>
      <point x="352" y="130"/>
      <point x="394" y="166"/>
      <point x="394" y="230" type="curve" smooth="yes"/>
      <point x="394" y="294"/>
      <point x="352" y="331"/>
      <point x="302" y="331" type="curve" smooth="yes"/>
      <point x="252" y="331"/>
      <point x="210" y="294"/>
    </contour>
    <contour>
      <point x="302" y="618" type="line"/>
      <point x="216" y="534" type="line"/>
      <point x="93" y="616" type="line"/>
      <point x="302" y="756" type="line"/>
      <point x="510" y="616" type="line"/>
      <point x="387" y="534" type="line"/>
    </contour>
  </outline>
</glyph>
<glyph name="odieresis" format="1">
  <advance width="602"/>
  <unicode hex="00F6"/>
  <outline>
    <contour>
      <point x="31" y="230" type="curve" smooth="yes"/>
      <point x="31" y="378"/>
      <point x="147" y="470"/>
      <point x="302" y="470" type="curve" smooth="yes"/>
      <point x="457" y="470"/>
      <point x="572" y="378"/>
      <point x="572" y="230" type="curve" smooth="yes"/>
      <point x="572" y="82"/>
      <point x="457" y="-10"/>
      <point x="302" y="-10" type="curve" smooth="yes"/>
      <point x="147" y="-10"/>
      <point x="31" y="82"/>
    </contour>
    <contour>
      <point x="210" y="230" type="curve" smooth="yes"/>
      <point x="210" y="166"/>
      <point x="252" y="130"/>
      <point x="302" y="130" type="curve" smooth="yes"/>
      <point x="352" y="130"/>
      <point x="394" y="166"/>
      <point x="394" y="230" type="curve" smooth="yes"/>
      <point x="394" y="294"/>
      <point x="352" y="331"/>
      <point x="302" y="331" type="curve" smooth="yes"/>
      <point x="252" y="331"/>
      <point x="210" y="294"/>
    </contour>
    <contour>
      <point x="324" y="640" type="curve" smooth="yes"/>
      <point x="324" y="696"/>
      <point x="368" y="744"/>
      <point x="430" y="744" type="curve" smooth="yes"/>
      <point x="492" y="744"/>
      <point x="536" y="696"/>
      <point x="536" y="640" type="curve" smooth="yes"/>
      <point x="536" y="584"/>
      <point x="492" y="536"/>
      <point x="430" y="536" type="curve" smooth="yes"/>
      <point x="368" y="536"/>
      <point x="324" y="584"/>
    </contour>
    <contour>
      <point x="66" y="640" type="curve" smooth="yes"/>
      <point x="66" y="696"/>
      <point x="111" y="744"/>
      <point x="173" y="744" type="curve" smooth="yes"/>
      <point x="235" y="744"/>
      <point x="280" y="696"/>
      <point x="280" y="640" type="curve" smooth="yes"/>
      <point x="280" y="584"/>
      <point x="235" y="536"/>
      <point x="173" y="536" type="curve" smooth="yes"/>
      <point x="111" y="536"/>
      <point x="66" y="584"/>
    </contour>
  </outline>
</glyph>
<glyph name="Abreve" format="1">
  <advance width="757"/>
  <unicode hex="0102"/>
  <outline>
    <contour>
      <point x="196" y="112" type="line"/>
      <point x="202" y="256" type="line"/>
      <point x="560" y="256" type="line"/>
      <point x="566" y="112" type="line"/>
    </contour>
    <contour>
      <point x="379" y="412" type="line"/>
      <point x="287" y="203" type="line"/>
      <point x="299" y="159" type="line"/>
      <point x="218" y="0" type="line"/>
      <point x="-4" y="0" type="line"/>
      <point x="379" y="747" type="line"/>
      <point x="760" y="0" type="line"/>
      <point x="540" y="0" type="line"/>
      <point x="460" y="152" type="line"/>
      <point x="471" y="202" type="line"/>
    </contour>
    <contour>
      <point x="212" y="955" type="curve"/>
      <point x="320" y="955" type="line"/>
      <point x="320" y="917"/>
      <point x="349" y="900"/>
      <point x="379" y="900" type="curve" smooth="yes"/>
      <point x="409" y="900"/>
      <point x="437" y="917"/>
      <point x="437" y="955" type="curve"/>
      <point x="545" y="955" type="line"/>
      <point x="545" y="869"/>
      <point x="484" y="807"/>
      <point x="379" y="807" type="curve" smooth="yes"/>
      <point x="274" y="807"/>
      <point x="212" y="869"/>
    </contour>
  </outline>
</glyph>
<glyph name="Aogonek" format="1">
  <advance width="757"/>
  <unicode hex="0104"/>
  <outline>
    <contour>
      <point x="196" y="112" type="line"/>
      <point x="202" y="256" type="line"/>
      <point x="560" y="256" type="line"/>
      <point x="566" y="112" type="line"/>
    </contour>
    <contour>
      <point x="379" y="412" type="line"/>
      <point x="287" y="203" type="line"/>
      <point x="299" y="159" type="line"/>
      <point x="218" y="0" type="line"/>
      <point x="-4" y="0" type="line"/>
      <point x="379" y="747" type="line"/>
      <point x="760" y="0" type="line"/>
      <point x="540" y="0" type="line"/>
      <point x="460" y="152" type="line"/>
      <point x="471" y="202" type="line"/>
    </contour>
    <contour>
      <point x="720" y="-95" type="curve"/>
      <point x="752" y="-170" type="line"/>
      <point x="737" y="-190"/>
      <point x="708" y="-210"/>
      <point x="648" y="-210" type="curve" smooth="yes"/>
      <point x="588" y="-210"/>
      <point x="534" y="-178"/>
      <point x="534" y="-110" type="curve"/>
      <point x="638" y="-82" type="line"/>
      <point x="638" y="-104"/>
      <point x="648" y="-115"/>
      <point x="670" y="-115" type="curve" smooth="yes"/>
      <point x="688" y="-115"/>
      <point x="706" y="-108"/>
    </contour>
    <contour>
      <point x="638" y="-82" type="curve"/>
      <point x="534" y="-110" type="line"/>
      <point x="534" y="-42"/>
      <point x="604" y="0"/>
      <point x="674" y="36" type="curve"/>
      <point x="714" y="10" type="line"/>
      <point x="662" y="-20"/>
      <point x="638" y="-54"/>
    </contour>
  </outline>
</glyph>
<glyph name="cacute" format="1">
  <advance width="498"/>
  <unicode hex="0107"/>
  <outline>
    <contour>
      <point x="208" y="230" type="curve" smooth="yes"/>
      <point x="208" y="162"/>
      <point x="258" y="124"/>
      <point x="320" y="124" type="curve" smooth="yes"/>
      <point x="370" y="124"/>
      <point x="418" y="144"/>
      <point x="448" y="188" type="curve"/>
      <point x="448" y="26" type="line"/>
      <point x="416" y="4"/>
      <point x="376" y="-10"/>
      <point x="304" y="-10" type="curve" smooth="yes"/>
      <point x="144" y="-10"/>
      <point x="30" y="82"/>
      <point x="30" y="230" type="curve" smooth="yes"/>
      <point x="30" y="378"/>
      <point x="144" y="470"/>
      <point x="304" y="470" type="curve" smooth="yes"/>
      <point x="376" y="470"/>
      <point x="416" y="454"/>
      <point x="448" y="436" type="curve"/>
      <point x="448" y="273" type="line"/>
      <point x="418" y="317"/>
      <point x="362" y="336"/>
      <point x="320" y="336" type="curve" smooth="yes"/>
      <point x="258" y="336"/>
      <point x="208" y="290"/>
    </contour>
    <contour>
      <point x="434" y="680" type="line"/>
      <point x="254" y="530" type="line"/>
      <point x="156" y="577" type="line"/>
      <point x="306" y="737" type="line"/>
    </contour>
  </outline>
</glyph>
<glyph name="Dcroat" format="1">
  <advance width="749"/>
  <unicode hex="0110"/>
  <outline>
    <contour>
      <point x="204" y="530" type="line"/>
      <point x="204" y="700" type="line"/>
      <point x="334" y="700" type="line" smooth="yes"/>
      <point x="570" y="700"/>
      <point x="718" y="568"/>
      <point x="718" y="350" type="curve"/>
      <point x="514" y="350" type="line"/>
      <point x="514" y="496"/>
      <point x="419" y="530"/>
      <point x="326" y="530" type="curve" smooth="yes"/>
    </contour>
    <contour>
      <point x="334" y="0" type="curve" smooth="yes"/>
      <point x="204" y="0" type="line"/>
      <point x="204" y="170" type="line"/>
      <point x="326" y="170" type="line" smooth="yes"/>
      <point x="419" y="170"/>
      <point x="514" y="204"/>
      <point x="514" y="350" type="curve"/>
      <point x="718" y="350" type="line"/>
      <point x="718" y="132"/>
      <point x="570" y="0"/>
    </contour>
    <contour>
      <point x="72" y="700" type="line"/>
      <point x="274" y="700" type="line"/>
      <point x="274" y="0" type="line"/>
      <point x="72" y="0" type="line"/>
    </contour>
    <contour>
      <point x="5" y="294" type="line"/>
      <point x="5" y="402" type="line"/>
      <point x="362" y="402" type="line"/>
      <point x="362" y="294" type="line"/>
    </contour>
  </outline>
</glyph>
<glyph name="itilde" format="1">
  <advance width="281"/>
  <unicode hex="0129"/>
  <outline>
    <contour>
      <point x="56" y="460" type="line"/>
      <point x="224" y="460" type="line"/>
      <point x="224" y="0" type="line"/>
      <point x="56" y="0" type="line"/>
    </contour>
    <contour>
      <point x="-65" y="605" type="line"/>
      <point x="-55" y="654"/>
      <point x="-12" y="704"/>
      <point x="58" y="704" type="curve" smooth="yes"/>
      <point x="124" y="704"/>
      <point x="142" y="650"/>
      <point x="199" y="650" type="curve" smooth="yes"/>
      <point x="227" y="650"/>
      <point x="248" y="672"/>
      <point x="268" y="704" type="curve"/>
      <point x="346" y="621" type="line"/>
      <point x="330" y="584"/>
      <point x="269" y="532"/>
      <point x="203" y="532" type="curve" smooth="yes"/>
      <point x="148" y="532"/>
      <point x="109" y="587"/>
      <point x="58" y="587" type="curve" smooth="yes"/>
      <point x="21" y="587"/>
      <point x="12" y="551"/>
      <point x="12" y="536" type="curve"/>
    </contour>
  </outline>
</glyph>
<glyph name="ij" format="1">
  <advance width="555"/>
  <unicode hex="0133"/>
  <outline>
    <contour>
      <point x="316" y="627" type="curve" smooth="yes"/>
      <point x="316" y="681"/>
      <point x="361" y="717"/>
      <point x="415" y="717" type="curve" smooth="yes"/>
      <point x="469" y="717"/>
      <point x="513" y="681"/>
      <point x="513" y="627" type="curve" smooth="yes"/>
      <point x="513" y="573"/>
      <point x="469" y="537"/>
      <point x="415" y="537" type="curve" smooth="yes"/>
      <point x="361" y="537"/>
      <point x="316" y="573"/>
    </contour>
    <contour>
      <point x="238" y="-66" type="line"/>
      <point x="252" y="-82"/>
      <point x="266" y="-91"/>
      <point x="284" y="-91" type="curve" smooth="yes"/>
      <point x="314" y="-91"/>
      <point x="332" y="-72"/>
      <point x="332" y="-30" type="curve" smooth="yes"/>
      <point x="332" y="460" type="line"/>
      <point x="498" y="460" type="line"/>
      <point x="498" y="-76" type="line" smooth="yes"/>
      <point x="498" y="-176"/>
      <point x="436" y="-244"/>
      <point x="312" y="-244" type="curve" smooth="yes"/>
      <point x="236" y="-244"/>
      <point x="196" y="-210"/>
      <point x="172" y="-190" type="curve"/>
    </contour>
    <contour>
      <point x="42" y="627" type="curve" smooth="yes"/>
      <point x="42" y="681"/>
      <point x="86" y="717"/>
      <point x="140" y="717" type="curve" smooth="yes"/>
      <point x="194" y="717"/>
      <point x="238" y="681"/>
      <point x="238" y="627" type="curve" smooth="yes"/>
      <point x="238" y="573"/>
      <point x="194" y="537"/>
      <point x="140" y="537" type="curve" smooth="yes"/>
      <point x="86" y="537"/>
      <point x="42" y="573"/>
    </contour>
    <contour>
      <point x="56" y="460" type="line"/>
      <point x="224" y="460" type="line"/>
      <point x="224" y="0" type="line"/>
      <point x="56" y="0" type="line"/>
    </contour>
  </outline>
</glyph>
<glyph name="jcircumflex" format="1">
  <advance width="278"/>
  <unicode hex="0135"/>
  <outline>
    <contour>
      <point x="-38" y="-66" type="line"/>
      <point x="-24" y="-82"/>
      <point x="-10" y="-91"/>
      <point x="8" y="-91" type="curve" smooth="yes"/>
      <point x="38" y="-91"/>
      <point x="56" y="-72"/>
      <point x="56" y="-30" type="curve" smooth="yes"/>
      <point x="56" y="460" type="line"/>
      <point x="221" y="460" type="line"/>
      <point x="221" y="-76" type="line" smooth="yes"/>
      <point x="221" y="-176"/>
      <point x="160" y="-244"/>
      <point x="36" y="-244" type="curve" smooth="yes"/>
      <point x="-40" y="-244"/>
      <point x="-80" y="-210"/>
      <point x="-104" y="-190" type="curve"/>
    </contour>
    <contour>
      <point x="138" y="614" type="line"/>
      <point x="52" y="530" type="line"/>
      <point x="-71" y="612" type="line"/>
      <point x="138" y="752" type="line"/>
      <point x="346" y="612" type="line"/>
      <point x="224" y="530" type="line"/>
    </contour>
  </outline>
</glyph>
<glyph name="ldot" format="1">
  <advance width="508"/>
  <unicode hex="0140"/>
  <outline>
    <contour>
      <point x="55" y="780" type="line"/>
      <point x="228" y="780" type="line"/>
      <point x="228" y="0" type="line"/>
      <point x="55" y="0" type="line"/>
    </contour>
    <contour>
      <point x="264" y="406" type="curve" smooth="yes"/>
      <point x="264" y="462"/>
      <point x="308" y="510"/>
      <point x="370" y="510" type="curve" smooth="yes"/>
      <point x="432" y="510"/>
      <point x="476" y="462"/>
      <point x="476" y="406" type="curve" smooth="yes"/>
      <point x="476" y="350"/>
      <point x="432" y="303"/>
      <point x="370" y="303" type="curve" smooth="yes"/>
      <point x="308" y="303"/>
      <point x="264" y="350"/>
    </contour>
  </outline>
</glyph>
<glyph name="Lslash" format="1">
  <advance width="551"/>
  <unicode hex="0141"/>
  <outline>
    <contour>
      <point x="181" y="64" type="line"/>
      <point x="178" y="224" type="line"/>
      <point x="515" y="256" type="line"/>
      <point x="518" y="96" type="line"/>
    </contour>
    <contour>
      <point x="81" y="569" type="line"/>
      <point x="260" y="584" type="line"/>
      <point x="318" y="15" type="line"/>
      <point x="140" y="0" type="line"/>
    </contour>
    <contour>
      <point x="19" y="367" type="line"/>
      <point x="-6" y="436" type="line"/>
      <point x="336" y="540" type="line"/>
      <point x="360" y="471" type="line"/>
    </contour>
  </outline>
</glyph>
<glyph name="Nacute" format="1">
  <advance width="799"/>
  <unicode hex="0143"/>
  <outline>
    <contour>
      <point x="76" y="500" type="line"/>
      <point x="72" y="735" type="line"/>
      <point x="722" y="200" type="line"/>
      <point x="728" y="-35" type="line"/>
    </contour>
    <contour>
      <point x="541" y="700" type="line"/>
      <point x="728" y="700" type="line"/>
      <point x="728" y="-35" type="line"/>
      <point x="541" y="172" type="line"/>
    </contour>
    <contour>
      <point x="72" y="735" type="line"/>
      <point x="258" y="528" type="line"/>
      <point x="258" y="0" type="line"/>
      <point x="72" y="0" type="line"/>
    </contour>
    <contour>
      <point x="538" y="915" type="line"/>
      <point x="358" y="765" type="line"/>
      <point x="260" y="812" type="line"/>
      <point x="410" y="972" type="line"/>
    </contour>
  </outline>
</glyph>
<glyph name="nacute" format="1">
  <advance width="590"/>
  <unicode hex="0144"/>
  <outline>
    <contour>
      <point x="228" y="460" type="line"/>
      <point x="228" y="0" type="line"/>
      <point x="55" y="0" type="line"/>
      <point x="55" y="460" type="line"/>
    </contour>
    <contour>
      <point x="354" y="280" type="line" smooth="yes"/>
      <point x="354" y="328"/>
      <point x="341" y="355"/>
      <point x="296" y="355" type="curve" smooth="yes"/>
      <point x="254" y="355"/>
      <point x="228" y="330"/>
      <point x="228" y="280" type="curve"/>
      <point x="200" y="272" type="line"/>
      <point x="200" y="381"/>
      <point x="250" y="470"/>
      <point x="370" y="470" type="curve" smooth="yes"/>
      <point x="490" y="470"/>
      <point x="536" y="408"/>
      <point x="536" y="298" type="curve" smooth="yes"/>
      <point x="536" y="0" type="line"/>
      <point x="354" y="0" type="line"/>
    </contour>
    <contour>
      <point x="465" y="680" type="line"/>
      <point x="285" y="530" type="line"/>
      <point x="188" y="577" type="line"/>
      <point x="338" y="737" type="line"/>
    </contour>
  </outline>
</glyph>
<glyph name="uni0146" format="1">
  <advance width="590"/>
  <unicode hex="0146"/>
  <outline>
    <contour>
      <point x="228" y="460" type="line"/>
      <point x="228" y="0" type="line"/>
      <point x="55" y="0" type="line"/>
      <point x="55" y="460" type="line"/>
    </contour>
    <contour>
      <point x="354" y="280" type="line" smooth="yes"/>
      <point x="354" y="328"/>
      <point x="341" y="355"/>
      <point x="296" y="355" type="curve" smooth="yes"/>
      <point x="254" y="355"/>
      <point x="228" y="330"/>
      <point x="228" y="280" type="curve"/>
      <point x="200" y="272" type="line"/>
      <point x="200" y="381"/>
      <point x="250" y="470"/>
      <point x="370" y="470" type="curve" smooth="yes"/>
      <point x="490" y="470"/>
      <point x="536" y="408"/>
      <point x="536" y="298" type="curve" smooth="yes"/>
      <point x="536" y="0" type="line"/>
      <point x="354" y="0" type="line"/>
    </contour>
    <contour>
      <point x="252" y="-60" type="line"/>
      <point x="426" y="-93" type="line"/>
      <point x="296" y="-343" type="line"/>
      <point x="164" y="-319" type="line"/>
    </contour>
  </outline>
</glyph>
<glyph name="racute" format="1">
  <advance width="432"/>
  <unicode hex="0155"/>
  <outline>
    <contour>
      <point x="224" y="460" type="line"/>
      <point x="224" y="0" type="line"/>
      <point x="55" y="0" type="line"/>
      <point x="55" y="460" type="line"/>
    </contour>
    <contour>
      <point x="355" y="282" type="line"/>
      <point x="341" y="298"/>
      <point x="323" y="310"/>
      <point x="297" y="310" type="curve" smooth="yes"/>
      <point x="257" y="310"/>
      <point x="224" y="277"/>
      <point x="224" y="211" type="curve"/>
      <point x="188" y="280" type="line"/>
      <point x="188" y="389"/>
      <point x="264" y="472"/>
      <point x="346" y="472" type="curve" smooth="yes"/>
      <point x="379" y="472"/>
      <point x="414" y="454"/>
      <point x="428" y="432" type="curve"/>
    </contour>
    <contour>
      <point x="412" y="682" type="line"/>
      <point x="232" y="532" type="line"/>
      <point x="134" y="578" type="line"/>
      <point x="284" y="738" type="line"/>
    </contour>
  </outline>
</glyph>
<glyph name="Rcaron" format="1">
  <advance width="673"/>
  <unicode hex="0158"/>
  <outline>
    <contour>
      <point x="262" y="308" type="line"/>
      <point x="462" y="308" type="line"/>
      <point x="672" y="0" type="line"/>
      <point x="445" y="0" type="line"/>
    </contour>
    <contour>
      <point x="72" y="700" type="line"/>
      <point x="266" y="700" type="line"/>
      <point x="266" y="0" type="line"/>
      <point x="72" y="0" type="line"/>
    </contour>
    <contour>
      <point x="196" y="536" type="line"/>
      <point x="196" y="700" type="line"/>
      <point x="348" y="700" type="line" smooth="yes"/>
      <point x="540" y="700"/>
      <point x="630" y="604"/>
      <point x="630" y="466" type="curve" smooth="yes"/>
      <point x="630" y="328"/>
      <point x="540" y="231"/>
      <point x="348" y="231" type="curve" smooth="yes"/>
      <point x="196" y="231" type="line"/>
      <point x="196" y="380" type="line"/>
      <point x="331" y="380" type="line" smooth="yes"/>
      <point x="393" y="380"/>
      <point x="427" y="408"/>
      <point x="427" y="458" type="curve" smooth="yes"/>
      <point x="427" y="508"/>
      <point x="393" y="536"/>
      <point x="331" y="536" type="curve" smooth="yes"/>
    </contour>
    <contour>
      <point x="330" y="916" type="line"/>
      <point x="416" y="999" type="line"/>
      <point x="539" y="918" type="line"/>
      <point x="330" y="778" type="line"/>
      <point x="122" y="918" type="line"/>
      <point x="245" y="999" type="line"/>
    </contour>
  </outline>
</glyph>
<glyph name="Ydieresis" format="1">
  <advance width="690"/>
  <unicode hex="0178"/>
  <outline>
    <contour>
      <point x="246" y="360" type="line"/>
      <point x="444" y="360" type="line"/>
      <point x="444" y="0" type="line"/>
      <point x="246" y="0" type="line"/>
    </contour>
    <contour>
      <point x="468" y="700" type="line"/>
      <point x="694" y="700" type="line"/>
      <point x="345" y="111" type="line"/>
      <point x="-4" y="700" type="line"/>
      <point x="222" y="700" type="line"/>
      <point x="345" y="456" type="line"/>
    </contour>
    <contour>
      <point x="384" y="882" type="curve" smooth="yes"/>
      <point x="384" y="938"/>
      <point x="428" y="986"/>
      <point x="490" y="986" type="curve" smooth="yes"/>
      <point x="552" y="986"/>
      <point x="596" y="938"/>
      <point x="596" y="882" type="curve" smooth="yes"/>
      <point x="596" y="826"/>
      <point x="552" y="778"/>
      <point x="490" y="778" type="curve" smooth="yes"/>
      <point x="428" y="778"/>
      <point x="384" y="826"/>
    </contour>
    <contour>
      <point x="94" y="882" type="curve" smooth="yes"/>
      <point x="94" y="938"/>
      <point x="138" y="986"/>
      <point x="200" y="986" type="curve" smooth="yes"/>
      <point x="262" y="986"/>
      <point x="306" y="938"/>
      <point x="306" y="882" type="curve" smooth="yes"/>
      <point x="306" y="826"/>
      <point x="262" y="778"/>
      <point x="200" y="778" type="curve" smooth="yes"/>
      <point x="138" y="778"/>
      <point x="94" y="826"/>
    </contour>
  </outline>
</glyph>
<glyph name="zcaron" format="1">
  <advance width="533"/>
  <unicode hex="017E"/>
  <outline>
    <contour>
      <point x="176" y="156" type="line"/>
      <point x="490" y="156" type="line"/>
      <point x="490" y="0" type="line"/>
      <point x="15" y="0" type="line"/>
    </contour>
    <contour>
      <point x="62" y="460" type="line"/>
      <point x="526" y="460" type="line"/>
      <point x="350" y="304" type="line"/>
      <point x="62" y="304" type="line"/>
    </contour>
    <contour>
      <point x="364" y="460" type="line"/>
      <point x="526" y="460" type="line"/>
      <point x="202" y="0" type="line"/>
      <point x="15" y="0" type="line"/>
    </contour>
    <contour>
      <point x="294" y="668" type="line"/>
      <point x="380" y="750" type="line"/>
      <point x="502" y="670" type="line"/>
      <point x="294" y="530" type="line"/>
      <point x="85" y="670" type="line"/>
      <point x="208" y="750" type="line"/>
    </contour>
  </outline>
</glyph>
<glyph name="dotaccent" format="1">
  <advance width="300"/>
  <unicode hex="02D9"/>
  <outline>
    <contour>
      <point x="44" y="822" type="curve" smooth="yes"/>
      <point x="44" y="878"/>
      <point x="88" y="926"/>
      <point x="150" y="926" type="curve" smooth="yes"/>
      <point x="212" y="926"/>
      <point x="256" y="878"/>
      <point x="256" y="822" type="curve" smooth="yes"/>
      <point x="256" y="766"/>
      <point x="212" y="718"/>
      <point x="150" y="718" type="curve" smooth="yes"/>
      <point x="88" y="718"/>
      <point x="44" y="766"/>
    </contour>
  </outline>
</glyph>
<glyph name="uni203D" format="1">
  <advance width="648"/>
  <unicode hex="203D"/>
  <outline>
    <contour>
      <point x="440" y="476" type="curve" smooth="yes"/>
      <point x="440" y="546"/>
      <point x="388" y="578"/>
      <point x="310" y="578" type="curve" smooth="yes"/>
      <point x="252" y="578"/>
      <point x="189" y="556"/>
      <point x="158" y="490" type="curve"/>
      <point x="44" y="588" type="line"/>
      <point x="90" y="658"/>
      <point x="200" y="720"/>
      <point x="328" y="720" type="curve" smooth="yes"/>
      <point x="462" y="720"/>
      <point x="596" y="644"/>
      <point x="596" y="500" type="curve" smooth="yes"/>
      <point x="596" y="340"/>
      <point x="415" y="274"/>
      <point x="300" y="274" type="curve"/>
      <point x="290" y="349" type="line"/>
      <point x="361" y="349"/>
      <point x="440" y="400"/>
    </contour>
    <contour>
      <point x="220" y="502" type="line"/>
      <point x="378" y="502" type="line"/>
      <point x="349" y="210" type="line"/>
      <point x="250" y="210" type="line"/>
    </contour>
    <contour>
      <point x="199" y="68" type="curve" smooth="yes"/>
      <point x="199" y="122"/>
      <point x="245" y="164"/>
      <point x="307" y="164" type="curve" smooth="yes"/>
      <point x="369" y="164"/>
      <point x="415" y="122"/>
      <point x="415" y="68" type="curve" smooth="yes"/>
      <point x="415" y="14"/>
      <point x="369" y="-27"/>
      <point x="307" y="-27" type="curve" smooth="yes"/>
      <point x="245" y="-27"/>
      <point x="199" y="14"/>
    </contour>
  </outline>
</glyph>
<glyph name="uni2085" format="1">
  <advance width="408"/>
  <unicode hex="2085"/>
  <outline>
    <contour>
      <point x="376" y="131" type="curve" smooth="yes"/>
      <point x="376" y="31"/>
      <point x="280" y="-10"/>
      <point x="199" y="-10" type="curve" smooth="yes"/>
      <point x="122" y="-10"/>
      <point x="68" y="10"/>
      <point x="26" y="34" type="curve"/>
      <point x="64" y="134" type="line"/>
      <point x="102" y="108"/>
      <point x="144" y="96"/>
      <point x="170" y="96" type="curve" smooth="yes"/>
      <point x="218" y="96"/>
      <point x="248" y="110"/>
      <point x="248" y="146" type="curve" smooth="yes"/>
      <point x="248" y="182"/>
      <point x="207" y="193"/>
      <point x="170" y="193" type="curve" smooth="yes"/>
      <point x="140" y="193"/>
      <point x="92" y="188"/>
      <point x="49" y="170" type="curve"/>
      <point x="132" y="224" type="line"/>
      <point x="165" y="259"/>
      <point x="203" y="268"/>
      <point x="247" y="268" type="curve" smooth="yes"/>
      <point x="311" y="268"/>
      <point x="376" y="219"/>
    </contour>
    <contour>
      <point x="194" y="317" type="line"/>
      <point x="158" y="219" type="line"/>
      <point x="49" y="170" type="line"/>
      <point x="108" y="418" type="line"/>
      <point x="365" y="418" type="line"/>
      <point x="365" y="317" type="line"/>
    </contour>
  </outline>
</glyph>
<glyph name="uniFF14" format="1">
  <advance width="645"/>
  <unicode hex="FF14"/>
  <outline>
    <contour>
      <point x="10" y="120" type="line"/>
      <point x="169" y="256" type="line"/>
      <point x="440" y="256" type="line" smooth="yes"/>
      <point x="457" y="284" type="line" smooth="yes"/>
      <point x="628" y="284" type="line"/>
      <point x="628" y="120" type="line"/>
    </contour>
    <contour>
      <point x="189" y="184" type="line"/>
      <point x="10" y="120" type="line"/>
      <point x="382" y="700" type="line"/>
      <point x="534" y="700" type="line"/>
      <point x="534" y="0" type="line"/>
      <point x="332" y="0" type="line"/>
      <point x="332" y="156" type="line" smooth="yes"/>
      <point x="356" y="167" type="line" smooth="yes"/>
      <point x="356" y="438" type="line"/>
    </contour>
  </outline>
</glyph>
<glyph name="uniFF15" format="1">
  <advance width="645"/>
  <unicode hex="FF15"/>
  <outline>
    <contour>
      <point x="608" y="222" type="curve" smooth="yes"/>
      <point x="608" y="54"/>
      <point x="449" y="-14"/>
      <point x="314" y="-14" type="curve" smooth="yes"/>
      <point x="185" y="-14"/>
      <point x="95" y="20"/>
      <point x="25" y="60" type="curve"/>
      <point x="89" y="226" type="line"/>
      <point x="153" y="182"/>
      <point x="222" y="164"/>
      <point x="266" y="164" type="curve" smooth="yes"/>
      <point x="346" y="164"/>
      <point x="394" y="186"/>
      <point x="394" y="246" type="curve" smooth="yes"/>
      <point x="394" y="306"/>
      <point x="328" y="325"/>
      <point x="266" y="325" type="curve" smooth="yes"/>
      <point x="216" y="325"/>
      <point x="135" y="318"/>
      <point x="64" y="286" type="curve"/>
      <point x="202" y="376" type="line"/>
      <point x="256" y="434"/>
      <point x="318" y="449"/>
      <point x="394" y="449" type="curve" smooth="yes"/>
      <point x="502" y="449"/>
      <point x="608" y="370"/>
    </contour>
    <contour>
      <point x="304" y="532" type="line"/>
      <point x="245" y="368" type="line"/>
      <point x="64" y="286" type="line"/>
      <point x="162" y="700" type="line"/>
      <point x="590" y="700" type="line"/>
      <point x="590" y="532" type="line"/>
    </contour>
  </outline>
</glyph>
<glyph name="uniFF17" format="1">
  <advance width="645"/>
  <unicode hex="FF17"/>
  <outline>
    <contour>
      <point x="32" y="518" type="line"/>
      <point x="32" y="700" type="line"/>
      <point x="628" y="700" type="line"/>
      <point x="290" y="0" type="line"/>
      <point x="78" y="0" type="line"/>
      <point x="344" y="518" type="line"/>
    </contour>
  </outline>
</glyph>
<glyph name="abreve.alt" format="1">
  <advance width="630"/>
  <outline>
    <contour>
      <point x="405" y="460" type="line"/>
      <point x="578" y="460" type="line"/>
      <point x="578" y="0" type="line"/>
      <point x="405" y="0" type="line"/>
    </contour>
    <contour>
      <point x="31" y="230" type="curve" smooth="yes"/>
      <point x="31" y="396"/>
      <point x="138" y="478"/>
      <point x="246" y="478" type="curve" smooth="yes"/>
      <point x="370" y="478"/>
      <point x="440" y="379"/>
      <point x="440" y="230" type="curve" smooth="yes"/>
      <point x="440" y="81"/>
      <point x="370" y="-18"/>
      <point x="246" y="-18" type="curve" smooth="yes"/>
      <point x="138" y="-18"/>
      <point x="31" y="64"/>
    </contour>
    <contour>
      <point x="214" y="230" type="curve" smooth="yes"/>
      <point x="214" y="168"/>
      <point x="258" y="134"/>
      <point x="310" y="134" type="curve" smooth="yes"/>
      <point x="356" y="134"/>
      <point x="404" y="164"/>
      <point x="404" y="230" type="curve" smooth="yes"/>
      <point x="404" y="296"/>
      <point x="356" y="326"/>
      <point x="310" y="326" type="curve" smooth="yes"/>
      <point x="258" y="326"/>
      <point x="214" y="292"/>
    </contour>
    <contour>
      <point x="146" y="694" type="curve"/>
      <point x="254" y="694" type="line"/>
      <point x="254" y="656"/>
      <point x="282" y="640"/>
      <point x="312" y="640" type="curve" smooth="yes"/>
      <point x="342" y="640"/>
      <point x="370" y="656"/>
      <point x="370" y="694" type="curve"/>
      <point x="478" y="694" type="line"/>
      <point x="478" y="608"/>
      <point x="417" y="546"/>
      <point x="312" y="546" type="curve" smooth="yes"/>
      <point x="207" y="546"/>
      <point x="146" y="608"/>
    </contour>
  </outline>
</glyph>
<glyph name="aogonek.alt" format="1">
  <advance width="630"/>
  <outline>
    <contour>
      <point x="405" y="460" type="line"/>
      <point x="578" y="460" type="line"/>
      <point x="578" y="0" type="line"/>
      <point x="405" y="0" type="line"/>
    </contour>
    <contour>
      <point x="31" y="230" type="curve" smooth="yes"/>
      <point x="31" y="396"/>
      <point x="138" y="478"/>
      <point x="246" y="478" type="curve" smooth="yes"/>
      <point x="370" y="478"/>
      <point x="440" y="379"/>
      <point x="440" y="230" type="curve" smooth="yes"/>
      <point x="440" y="81"/>
      <point x="370" y="-18"/>
      <point x="246" y="-18" type="curve" smooth="yes"/>
      <point x="138" y="-18"/>
      <point x="31" y="64"/>
    </contour>
    <contour>
      <point x="214" y="230" type="curve" smooth="yes"/>
      <point x="214" y="168"/>
      <point x="258" y="134"/>
      <point x="310" y="134" type="curve" smooth="yes"/>
      <point x="356" y="134"/>
      <point x="404" y="164"/>
      <point x="404" y="230" type="curve" smooth="yes"/>
      <point x="404" y="296"/>
      <point x="356" y="326"/>
      <point x="310" y="326" type="curve" smooth="yes"/>
      <point x="258" y="326"/>
      <point x="214" y="292"/>
    </contour>
    <contour>
      <point x="546" y="-106" type="curve"/>
      <point x="578" y="-180" type="line"/>
      <point x="563" y="-200"/>
      <point x="534" y="-220"/>
      <point x="474" y="-220" type="curve" smooth="yes"/>
      <point x="414" y="-220"/>
      <point x="360" y="-188"/>
      <point x="360" y="-120" type="curve"/>
      <point x="464" y="-92" type="line"/>
      <point x="464" y="-114"/>
      <point x="474" y="-126"/>
      <point x="496" y="-126" type="curve" smooth="yes"/>
      <point x="514" y="-126"/>
      <point x="532" y="-119"/>
    </contour>
    <contour>
      <point x="464" y="-92" type="curve"/>
      <point x="360" y="-120" type="line"/>
      <point x="360" y="-52"/>
      <point x="430" y="-11"/>
      <point x="500" y="25" type="curve"/>
      <point x="540" y="0" type="line"/>
      <point x="488" y="-30"/>
      <point x="464" y="-64"/>
    </contour>
  </outline>
</glyph>
<glyph name="aring.alt" format="1">
  <advance width="630"/>
  <outline>
    <contour>
      <point x="405" y="460" type="line"/>
      <point x="578" y="460" type="line"/>
      <point x="578" y="0" type="line"/>
      <point x="405" y="0" type="line"/>
    </contour>
    <contour>
      <point x="31" y="230" type="curve" smooth="yes"/>
      <point x="31" y="396"/>
      <point x="138" y="478"/>
      <point x="246" y="478" type="curve" smooth="yes"/>
      <point x="370" y="478"/>
      <point x="440" y="379"/>
      <point x="440" y="230" type="curve" smooth="yes"/>
      <point x="440" y="81"/>
      <point x="370" y="-18"/>
      <point x="246" y="-18" type="curve" smooth="yes"/>
      <point x="138" y="-18"/>
      <point x="31" y="64"/>
    </contour>
    <contour>
      <point x="214" y="230" type="curve" smooth="yes"/>
      <point x="214" y="168"/>
      <point x="258" y="134"/>
      <point x="310" y="134" type="curve" smooth="yes"/>
      <point x="356" y="134"/>
      <point x="404" y="164"/>
      <point x="404" y="230" type="curve" smooth="yes"/>
      <point x="404" y="296"/>
      <point x="356" y="326"/>
      <point x="310" y="326" type="curve" smooth="yes"/>
      <point x="258" y="326"/>
      <point x="214" y="292"/>
    </contour>
    <contour>
      <point x="219" y="628" type="curve" smooth="yes"/>
      <point x="219" y="700"/>
      <point x="275" y="748"/>
      <point x="350" y="748" type="curve" smooth="yes"/>
      <point x="425" y="748"/>
      <point x="483" y="700"/>
      <point x="483" y="628" type="curve" smooth="yes"/>
      <point x="483" y="556"/>
      <point x="425" y="507"/>
      <point x="350" y="507" type="curve" smooth="yes"/>
      <point x="275" y="507"/>
      <point x="219" y="556"/>
    </contour>
    <contour>
      <point x="306" y="628" type="curve" smooth="yes"/>
      <point x="306" y="599"/>
      <point x="325" y="582"/>
      <point x="350" y="582" type="curve" smooth="yes"/>
      <point x="375" y="582"/>
      <point x="396" y="599"/>
      <point x="396" y="628" type="curve" smooth="yes"/>
      <point x="396" y="657"/>
      <point x="375" y="674"/>
      <point x="350" y="674" type="curve" smooth="yes"/>
      <point x="325" y="674"/>
      <point x="306" y="657"/>
    </contour>
  </outline>
</glyph>
